<svg xmlns="http://www.w3.org/2000/svg" viewBox="0 0 32 107">
  <title>vessel</title>
  <g>
    <path d="M26.28,107h-20c-1.71,0-3.45-4.18-4.12-6A32.32,32.32,0,0,1,0,90.56V24.13c0-3.4,2.57-8.87,7.06-15a65.68,65.68,0,0,1,5.2-6.3C14.68.29,15.55,0,16,0s1.3.32,3.7,2.86a66.76,66.76,0,0,1,5.2,6.29c4.52,6.16,7.11,11.62,7.11,15V90.57a33.68,33.68,0,0,1-2.24,10.25c-.64,1.78-2.26,5.94-3.44,6.17Z" fill="#525a63"/>
    <path d="M6.39,105.32H25.83a23,23,0,0,0,2.35-5.08,31.87,31.87,0,0,0,2.14-9.68V24.14c0-3-2.47-8.12-6.79-14A66.13,66.13,0,0,0,18.47,4,15.92,15.92,0,0,0,16,1.73,15.33,15.33,0,0,0,13.48,4a63.39,63.39,0,0,0-5.07,6.13C4.13,16,1.68,21.08,1.68,24.13V90.56a30.46,30.46,0,0,0,2.07,9.88C5.05,103.93,6.12,105.14,6.39,105.32Z" fill="#f5f5f5"/>
  </g>
</svg>
