<svg xmlns="http://www.w3.org/2000/svg" viewBox="0 0 500 200">
  <title>vessel</title>
  <g>
    <path d="M446.39,148.66l-94.56-.12c-83.67-.1-187.81-.24-198.56-.24-9.31,0-65.08-.32-88-1.78-9.55-.61-17.32-4.09-17.32-7.77a1.48,1.48,0,0,1,1.68-1.59,6.58,6.58,0,0,1,1,.11,7.48,7.48,0,0,0,1.14.12c2.92,0,2.92-1.54,2.92-2.2,0-1.91-4.41-2.19-8.36-2.2a14.61,14.61,0,0,0-.68,5v10.56H33V131h6.28L33,130.19V113.52H56.28V87.46L61.55,72H72.88v14.6h3.35V79.86h8.91V71.58l-3.92-1.84V66.33h2.13v-15h3.42v15h.14V58.84H90V61h2.5v5.35H93V61.69h3.42v4.64h1.78v3.5L91.41,72v7.9h19.94v33.62h58.91V68.1H179V86.27H236.5V68.1h8.76v45.42H301V68.1h8.72V86.27h57.84V68.1h8.77v45.43h32.53c8.44,0,14.21-8,14.27-8.12l.3-.43H466l-.91,1.52c-3.95,6.59-9.83,17.43-9.83,20.27,0,1.07,1.41,1.7,3.74,2.62,3.09,1.23,6.95,2.75,6.95,7.23C465.92,141.87,456.45,148.66,446.39,148.66Zm-78-34.28V91.32H308.87v23.06Zm-131.07,0V91.32h-59.2v23.06Z" fill="#f5f5f5"/>
    <path d="M85.77,52.36v15h2.14V59.84H89v7.49h1.43V62h1.07v5.35H94V62.69h1.42v4.64h1.78V69.1l-6.76,2.17V80.9h19.94v33.62h60.91V69.1H178V87.27H237.5V69.1h6.76v45.42H302V69.1h6.72V87.27h59.84V69.1h6.77v45.43h33.53c9.05,0,15.09-8.55,15.09-8.55H464.2s-10,16.65-10,20.79,10.69,3.08,10.69,9.85c0,4.62-8.91,11-18.53,11-6.76,0-275.67-.36-293.12-.36-10.67,0-65.57-.36-88-1.78-9.78-.62-16.38-4.18-16.38-6.77,0-.45.13-.59.68-.59s1.36.23,2.17.23c1.42,0,3.92-.34,3.92-3.2S51,132,46.06,132c-1.07,0-1.42,3.89-1.42,6v9.56H34V132h7.12v-1.78L34,129.31V114.52H57.28V87.62l5-14.6h9.62v14.6h5.35V80.86h8.91V71L82.22,69.1V67.33h2.13v-15h1.42m222.1,63h61.56V90.32H307.87v25.06m-130.71,0h61.2V90.32h-61.2v25.06m-89.39-65H82.35v15H80.22v5l1.15.54,2.77,1.31v6.64H75.23v6.76H73.88V71h-13l-.46,1.36-5,14.6-.11.31v25.23H32v37.06H46.64V138a19.51,19.51,0,0,1,.39-4c6.57.1,6.65,1.16,6.65,1.2,0,.54,0,1.2-1.92,1.2a6.11,6.11,0,0,1-1-.11,7.61,7.61,0,0,0-1.18-.12,2.47,2.47,0,0,0-2.68,2.59c0,4.76,9.28,8.2,18.25,8.77,23,1.45,78.79,1.78,88.11,1.78,10.75,0,114.89.14,198.56.24l94.56.12c10,0,20.53-6.71,20.53-13,0-5.16-4.57-7-7.58-8.16-1-.4-3.11-1.23-3.11-1.69,0-2.24,4.92-11.81,9.69-19.76l1.81-3H422.92l-.6.85c-.05.07-5.57,7.7-13.45,7.7H377.34V67.1H366.57V85.27H310.73V67.1H300v45.42H246.26V67.1H235.5V85.27H180V67.1H169.26v45.42H112.35V78.9H92.41V72.73L97.78,71l1.39-.45V65.33H97.39V60.69H93.48V60H91V57.84H87.77V50.36Zm222.1,42h57.56v21.06H309.87V92.32Zm-130.71,0h57.2v21.06h-57.2V92.32Z" fill="#525a63"/>
  </g>
</svg>
