<svg xmlns="http://www.w3.org/2000/svg" viewBox="0 0 500 200">
  <title>waves</title>
  <g>
    <path d="M546.18,207.36c-4.51.62-4.82-4-9.36-4s-4.55,4-9.1,4-4.54-4-9.09-4-4.55,4-9.1,4-4.55-4-9.09-4-4.55,4-9.1,4-4.55-4-9.09-4-4.55,4-9.1,4-4.55-4-9.09-4-4.55,4-9.1,4-4.55-4-9.1-4-4.55,4-9.09,4-4.55-4-9.1-4-4.55,4-9.1,4-4.55-4-9.09-4-4.55,4-9.1,4-4.55-4-9.1-4-4.54,4-9.09,4-4.55-4-9.1-4-4.55,4-9.1,4-4.55-4-9.09-4-4.55,4-9.1,4-4.55-4-9.1-4-4.55,4-9.1,4-4.55-4-9.09-4-4.55,4-9.1,4-4.55-4-9.1-4-4.55,4-9.1,4-4.55-4-9.1-4-4.55,4-9.1,4-4.54-4-9.09-4-4.55,4-9.1,4-4.55-4-9.1-4-4.55,4-9.1,4-4.55-4-9.1-4-4.55,4-9.1,4-4.55-4-9.1-4-4.55,4-9.1,4-4.54-4-9.09-4-4.55,4-9.1,4-4.55-4-9.1-4-4.54,4-9.09,4-4.55-4-9.1-4-4.55,4-9.1,4-4.55-4-9.1-4-4.55,4-9.09,4-4.55-4-9.1-4-4.55,4-9.11,4-4.55-4-9.1-4-4.55,4-9.1,4-4.55-4-9.1-4-4.55,4-9.1,4-4.55-4-9.1-4-4.55,4-9.1,4-4.55-4-9.1-4-4.55,4-9.1,4-4.55-4-9.1-4-4.56,4-9.11,4-4.55-4-9.1-4-4.56,4-9.11,4-4.33-3.37-8.84-4c-.61-.08-2.27,1.37-2.27.76s4-.62,4-1.23-4-.61-4-1.23,4-.61,4-1.23-4-.61-4-1.22,4-.62,4-1.23-4-.61-4-1.23,4-.61,4-1.22-4-.62-4-1.23,4-.61,4-1.23-4-.61-4-1.22,4-.62,4-1.23-4-.61-4-1.23,4-.61,4-1.23-4-.61-4-1.22,4-.62,4-1.23-4-.61-4-1.23,4-.61,4-1.22-4-.62-4-1.23,4-.61,4-1.23-4-.61-4-1.23,4-.61,4-1.22-4-.62-4-1.23,4-.61,4-1.23-4-.61-4-1.22,4-.61,4-1.22-4-.61-4-1.23,4-.61,4-1.22-4-.61-4-1.22,4-.62,4-1.23-4-.61-4-1.23,4-.61,4-1.23-4-.61-4-1.23,4-.61,4-1.22-4-.62-4-1.23,4-.61,4-1.22-4-.62-4-1.23,4-.62,4-1.23-4-.62-4-1.23,4-.61,4-1.23-4-.61-4-1.23,4-.61,4-1.23-4-.61-4-1.23,4-.61,4-1.23-4-.61-4-1.22,4-.62,4-1.23-4-.62-4-1.24,4-.61,4-1.23-4-.61-4-1.23,4-.61,4-1.22-4-.62-4-1.23,4-.62,4-1.23-4-.62-4-1.23,4-.62,4-1.23-4-.62-4-1.24,4-.61,4-1.23-4-.61-4-1.23,4-.62,4-1.23-4-.62-4-1.24,4-.62,4-1.24-2.88-3.13-2.27-3.21c4.51-.62,4.82,4,9.36,4s4.55-4,9.1-4,4.54,4,9.09,4,4.55-4,9.1-4,4.55,4,9.1,4,4.54-4,9.09-4,4.55,4,9.09,4,4.55-4,9.1-4,4.55,4,9.1,4,4.54-4,9.09-4,4.55,4,9.1,4,4.55-4,9.09-4,4.55,4,9.1,4,4.55-4,9.1-4,4.55,4,9.09,4,4.55-4,9.1-4,4.55,4,9.1,4,4.55-4,9.09-4,4.55,4,9.1,4,4.55-4,9.1-4,4.55,4,9.1,4,4.54-4,9.09-4,4.55,4,9.1,4,4.55-4,9.1-4,4.55,4,9.1,4,4.54-4,9.09-4,4.55,4,9.1,4,4.55-4,9.1-4,4.55,4,9.1,4,4.55-4,9.1-4,4.54,4,9.09,4,4.55-4,9.1-4,4.55,4,9.1,4,4.55-4,9.1-4,4.55,4,9.1,4,4.55-4,9.1-4,4.55,4,9.1,4,4.55-4,9.1-4,4.55,4,9.09,4,4.55-4,9.1-4,4.55,4,9.1,4,4.54-4,9.09-4,4.55,4,9.1,4,4.55-4,9.1-4,4.55,4,9.1,4,4.55-4,9.09-4,4.55,4,9.1,4,4.56-4,9.11-4,4.55,4,9.1,4,4.55-4,9.1-4,4.55,4,9.1,4,4.55-4,9.1-4,4.55,4,9.1,4,4.55-4,9.1-4,4.55,4,9.1,4,4.55-4,9.1-4,4.55,4,9.1,4,4.56-4,9.11-4,4.55,4,9.1,4,4.56-4,9.11-4,4.33,3.37,8.84,4c.61.08,2.27-1.37,2.27-.76s-4,.62-4,1.23,4,.61,4,1.23-4,.61-4,1.22,4,.62,4,1.23-4,.62-4,1.23,4,.61,4,1.23-4,.61-4,1.22,4,.61,4,1.23-4,.61-4,1.22,4,.62,4,1.23-4,.61-4,1.23,4,.61,4,1.22-4,.62-4,1.23,4,.62,4,1.23-4,.61-4,1.23,4,.61,4,1.23-4,.61-4,1.22,4,.62,4,1.23-4,.61-4,1.23,4,.61,4,1.22-4,.62-4,1.23,4,.62,4,1.23-4,.61-4,1.22,4,.62,4,1.23-4,.61-4,1.22,4,.61,4,1.22-4,.62-4,1.23,4,.61,4,1.22-4,.62-4,1.23,4,.61,4,1.23-4,.61-4,1.23,4,.61,4,1.22-4,.62-4,1.23,4,.61,4,1.23-4,.61-4,1.22,4,.62,4,1.23-4,.61-4,1.23,4,.61,4,1.23-4,.61-4,1.23,4,.61,4,1.22-4,.62-4,1.23,4,.62,4,1.23-4,.62-4,1.23,4,.62,4,1.23-4,.62-4,1.23,4,.62,4,1.23-4,.62-4,1.23,4,.62,4,1.23-4,.62-4,1.23,4,.62,4,1.23-4,.62-4,1.23,4,.62,4,1.23-4,.62-4,1.23,4,.62,4,1.23-4,.62-4,1.24,4,.61,4,1.23-4,.62-4,1.23,4,.62,4,1.24-4.08,1-4,1.63C544.28,206.18,546.79,207.28,546.18,207.36Z" fill="#f5f5f5"/>
    <path d="M546.18,207.36c-4.51.62-4.82-4-9.36-4s-4.55,4-9.1,4-4.54-4-9.09-4-4.55,4-9.1,4-4.55-4-9.09-4-4.55,4-9.1,4-4.55-4-9.09-4-4.55,4-9.1,4-4.55-4-9.09-4-4.55,4-9.1,4-4.55-4-9.1-4-4.55,4-9.09,4-4.55-4-9.1-4-4.55,4-9.1,4-4.55-4-9.09-4-4.55,4-9.1,4-4.55-4-9.1-4-4.54,4-9.09,4-4.55-4-9.1-4-4.55,4-9.1,4-4.55-4-9.09-4-4.55,4-9.1,4-4.55-4-9.1-4-4.55,4-9.1,4-4.55-4-9.09-4-4.55,4-9.1,4-4.55-4-9.1-4-4.55,4-9.1,4-4.55-4-9.1-4-4.55,4-9.1,4-4.54-4-9.09-4-4.55,4-9.1,4-4.55-4-9.1-4-4.55,4-9.1,4-4.55-4-9.1-4-4.55,4-9.1,4-4.55-4-9.1-4-4.55,4-9.1,4-4.54-4-9.09-4-4.55,4-9.1,4-4.55-4-9.1-4-4.54,4-9.09,4-4.55-4-9.1-4-4.55,4-9.1,4-4.55-4-9.1-4-4.55,4-9.09,4-4.55-4-9.1-4-4.55,4-9.11,4-4.55-4-9.1-4-4.55,4-9.1,4-4.55-4-9.1-4-4.55,4-9.1,4-4.55-4-9.1-4-4.55,4-9.1,4-4.55-4-9.1-4-4.55,4-9.1,4-4.55-4-9.1-4-4.56,4-9.11,4-4.55-4-9.1-4-4.56,4-9.11,4-4.33-3.37-8.84-4c-.61-.08-2.27,1.37-2.27.76s4-.62,4-1.23-4-.61-4-1.23,4-.61,4-1.23-4-.61-4-1.22,4-.62,4-1.23-4-.61-4-1.23,4-.61,4-1.22-4-.62-4-1.23,4-.61,4-1.23-4-.61-4-1.22,4-.62,4-1.23-4-.61-4-1.23,4-.61,4-1.23-4-.61-4-1.22,4-.62,4-1.23-4-.61-4-1.23,4-.61,4-1.22-4-.62-4-1.23,4-.61,4-1.23-4-.61-4-1.23,4-.61,4-1.22-4-.62-4-1.23,4-.61,4-1.23-4-.61-4-1.22,4-.61,4-1.22-4-.61-4-1.23,4-.61,4-1.22-4-.61-4-1.22,4-.62,4-1.23-4-.61-4-1.23,4-.61,4-1.23-4-.61-4-1.23,4-.61,4-1.22-4-.62-4-1.23,4-.61,4-1.22-4-.62-4-1.23,4-.62,4-1.23-4-.62-4-1.23,4-.61,4-1.23-4-.61-4-1.23,4-.61,4-1.23-4-.61-4-1.23,4-.61,4-1.23-4-.61-4-1.22,4-.62,4-1.23-4-.62-4-1.24,4-.61,4-1.23-4-.61-4-1.23,4-.61,4-1.22-4-.62-4-1.23,4-.62,4-1.23-4-.62-4-1.23,4-.62,4-1.23-4-.62-4-1.24,4-.61,4-1.23-4-.61-4-1.23,4-.62,4-1.23-4-.62-4-1.24,4-.62,4-1.24-2.88-3.13-2.27-3.21c4.51-.62,4.82,4,9.36,4s4.55-4,9.1-4,4.54,4,9.09,4,4.55-4,9.1-4,4.55,4,9.1,4,4.54-4,9.09-4,4.55,4,9.09,4,4.55-4,9.1-4,4.55,4,9.1,4,4.54-4,9.09-4,4.55,4,9.1,4,4.55-4,9.09-4,4.55,4,9.1,4,4.55-4,9.1-4,4.55,4,9.09,4,4.55-4,9.1-4,4.55,4,9.1,4,4.55-4,9.09-4,4.55,4,9.1,4,4.55-4,9.1-4,4.55,4,9.1,4,4.54-4,9.09-4,4.55,4,9.1,4,4.55-4,9.1-4,4.55,4,9.1,4,4.54-4,9.09-4,4.55,4,9.1,4,4.55-4,9.1-4,4.55,4,9.1,4,4.55-4,9.1-4,4.54,4,9.09,4,4.55-4,9.1-4,4.55,4,9.1,4,4.55-4,9.1-4,4.55,4,9.1,4,4.55-4,9.1-4,4.55,4,9.1,4,4.55-4,9.1-4,4.55,4,9.09,4,4.55-4,9.1-4,4.55,4,9.1,4,4.54-4,9.09-4,4.55,4,9.1,4,4.55-4,9.1-4,4.55,4,9.1,4,4.55-4,9.09-4,4.55,4,9.1,4,4.56-4,9.11-4,4.55,4,9.1,4,4.55-4,9.1-4,4.55,4,9.1,4,4.55-4,9.1-4,4.55,4,9.1,4,4.55-4,9.1-4,4.55,4,9.1,4,4.55-4,9.1-4,4.55,4,9.1,4,4.56-4,9.11-4,4.55,4,9.1,4,4.56-4,9.11-4,4.33,3.37,8.84,4c.61.08,2.27-1.37,2.27-.76s-4,.62-4,1.23,4,.61,4,1.23-4,.61-4,1.22,4,.62,4,1.23-4,.62-4,1.23,4,.61,4,1.23-4,.61-4,1.22,4,.61,4,1.23-4,.61-4,1.22,4,.62,4,1.23-4,.61-4,1.23,4,.61,4,1.22-4,.62-4,1.23,4,.62,4,1.23-4,.61-4,1.23,4,.61,4,1.23-4,.61-4,1.22,4,.62,4,1.23-4,.61-4,1.23,4,.61,4,1.22-4,.62-4,1.23,4,.62,4,1.23-4,.61-4,1.22,4,.62,4,1.23-4,.61-4,1.22,4,.61,4,1.22-4,.62-4,1.23,4,.61,4,1.22-4,.62-4,1.23,4,.61,4,1.23-4,.61-4,1.23,4,.61,4,1.22-4,.62-4,1.23,4,.61,4,1.23-4,.61-4,1.22,4,.62,4,1.23-4,.61-4,1.23,4,.61,4,1.23-4,.61-4,1.23,4,.61,4,1.22-4,.62-4,1.23,4,.62,4,1.23-4,.62-4,1.23,4,.62,4,1.23-4,.62-4,1.23,4,.62,4,1.23-4,.62-4,1.23,4,.62,4,1.23-4,.62-4,1.23,4,.62,4,1.23-4,.62-4,1.23,4,.62,4,1.23-4,.62-4,1.23,4,.62,4,1.23-4,.62-4,1.24,4,.61,4,1.23-4,.62-4,1.23,4,.62,4,1.24-4.08,1-4,1.63C544.28,206.18,546.79,207.28,546.18,207.36Z" fill="none" stroke="#525a63" stroke-miterlimit="10"/>
  </g>
</svg>
