<svg xmlns="http://www.w3.org/2000/svg" viewBox="0 0 488.85 258.12">
  <title>chained</title>
  <path d="M181.35,72H90.92a57.06,57.06,0,0,0,0,114.12h90.43a57.17,57.17,0,0,0,55-42.08l.69-2.52H222.93l-.45,1.36a43.41,43.41,0,0,1-41.13,29.6H90.92a43.42,43.42,0,0,1,0-86.84h90.43a43.41,43.41,0,0,1,41.13,29.6l.45,1.36H237l-.69-2.52a57.17,57.17,0,0,0-55-42.08Z" fill="#525a63"/>
  <polygon points="288.9 122.24 286.9 122.24 190.51 122.24 188.51 122.24 188.51 124.24 188.51 133.88 188.51 135.88 190.51 135.88 286.9 135.88 288.9 135.88 288.9 133.88 288.9 124.24 288.9 122.24 288.9 122.24" fill="#525a63"/>
  <path d="M397.93,72H307.5a57.16,57.16,0,0,0-55,42.08l-.69,2.52h14.1l.46-1.36a43.4,43.4,0,0,1,41.12-29.6h90.43a43.42,43.42,0,0,1,0,86.84H307.5a43.4,43.4,0,0,1-41.12-29.6l-.46-1.36h-14.1l.69,2.52a57.16,57.16,0,0,0,55,42.08h90.43a57.06,57.06,0,0,0,0-114.12Z" fill="#525a63"/>
</svg>
