<svg xmlns="http://www.w3.org/2000/svg" viewBox="0 0 488.85 258.12">
  <title>unchained</title>
  <path d="M168,40.08v0a56.55,56.55,0,0,0-40.26,16.64l-63.95,64a57.06,57.06,0,0,0,80.7,80.69l63.94-63.94a57.18,57.18,0,0,0,9.13-68.64l-1.3-2.28-1.85,1.86-7.1,7.1-1,1,.64,1.28a43.39,43.39,0,0,1-8.15,50l-63.94,63.94a43.42,43.42,0,0,1-61.4-61.4L137.4,66.37A43,43,0,0,1,168.05,53.7a43.79,43.79,0,0,1,19.36,4.52l1.29.64,1-1,7.11-7.1,1.85-1.85-2.28-1.3A57.2,57.2,0,0,0,168,40.08Z" fill="#525a63"/>
  <path d="M320.84,40.08a57.24,57.24,0,0,0-28.38,7.51l-2.27,1.3L292,50.74l7.1,7.1,1,1,1.29-.64a43.76,43.76,0,0,1,19.36-4.52,43.08,43.08,0,0,1,30.65,12.67l63.94,63.94A43.42,43.42,0,0,1,354,191.71l-63.94-63.94a43.4,43.4,0,0,1-8.15-50l.64-1.28-1-1-7.11-7.1-1.85-1.85-1.3,2.27a57.16,57.16,0,0,0,9.14,68.64l63.94,63.94A57.06,57.06,0,0,0,425,120.67L361.1,56.73a56.53,56.53,0,0,0-40.26-16.65Z" fill="#525a63"/>
</svg>
