<svg xmlns="http://www.w3.org/2000/svg" viewBox="0 0 32 32">
  <title>vessel_control_icon</title>
  <g>
    <path d="M29,24.77,24.74,29c-.36.36-1.61-.16-2.14-.4a9.66,9.66,0,0,1-2.66-1.75l-14-14c-.72-.72-1.33-2.42-1.68-4.67A19.6,19.6,0,0,1,4,5.7c0-1,.1-1.29.19-1.39s.34-.2,1.39-.18A20,20,0,0,1,8,4.37c2.26.34,4,1,4.67,1.66l14.05,14a10.06,10.06,0,0,1,1.69,2.64c.25.51.78,1.73.58,2Z" fill="#525a63"/>
    <path d="M24.41,28.62l4.11-4.11A6.78,6.78,0,0,0,28,22.93a9.68,9.68,0,0,0-1.6-2.5l-14-14c-.64-.64-2.24-1.2-4.4-1.53a19,19,0,0,0-2.37-.22,4.19,4.19,0,0,0-1,0,4.26,4.26,0,0,0-.06,1,18.82,18.82,0,0,0,.23,2.37c.34,2.15.89,3.74,1.54,4.38l14,14.05a9,9,0,0,0,2.53,1.65A3.62,3.62,0,0,0,24.41,28.62Z" fill="#f5f5f5"/>
  </g>
</svg>
